<?xml version="1.0" encoding="UTF-8" standalone="no"?>
<svg
   xmlns:dc="http://purl.org/dc/elements/1.1/"
   xmlns:cc="http://creativecommons.org/ns#"
   xmlns:rdf="http://www.w3.org/1999/02/22-rdf-syntax-ns#"
   xmlns:svg="http://www.w3.org/2000/svg"
   xmlns="http://www.w3.org/2000/svg"
   xmlns:sodipodi="http://sodipodi.sourceforge.net/DTD/sodipodi-0.dtd"
   xmlns:inkscape="http://www.inkscape.org/namespaces/inkscape"
   version="1.1"
   id="Layer_1"
   x="0px"
   y="0px"
   viewBox="0 0 222.55835 243.35892"
   xml:space="preserve"
   sodipodi:docname="logo.svg"
   width="222.55835"
   height="243.35892"
   inkscape:version="1.0.2 (e86c870879, 2021-01-15, custom)"><metadata
   id="metadata17"><rdf:RDF><cc:Work
       rdf:about=""><dc:format>image/svg+xml</dc:format><dc:type
         rdf:resource="http://purl.org/dc/dcmitype/StillImage" /><dc:title></dc:title></cc:Work></rdf:RDF></metadata><defs
   id="defs15" /><sodipodi:namedview
   pagecolor="#ffffff"
   bordercolor="#666666"
   borderopacity="1"
   objecttolerance="10"
   gridtolerance="10"
   guidetolerance="10"
   inkscape:pageopacity="0"
   inkscape:pageshadow="2"
   inkscape:window-width="2506"
   inkscape:window-height="1376"
   id="namedview13"
   showgrid="false"
   fit-margin-top="0"
   fit-margin-left="0"
   fit-margin-right="0"
   fit-margin-bottom="0"
   inkscape:zoom="2.24"
   inkscape:cx="225"
   inkscape:cy="225"
   inkscape:window-x="1263"
   inkscape:window-y="16"
   inkscape:window-maximized="0"
   inkscape:current-layer="Layer_1" />
<style
   type="text/css"
   id="style2">
	.st0{fill:#20B573;}
	.st1{fill:#FFFFFF;}
	.st2{fill-rule:evenodd;clip-rule:evenodd;fill:#6989AF;}
	.st3{fill:#6989AF;}
	.st4{fill:#CB8185;}
</style>
<g
   id="g10"
   transform="translate(-183.63,-63.01)">
	<g
   id="g8">
		<path
   class="st2"
   d="m 214.92,130.71 c -9.05,-4.06 -19.68,-3.71 -28.6,1.36 6.71,-1.68 13.74,-1.36 20.24,0.84 -11.29,2.38 -20.2,11.05 -22.93,22.23 5.35,-9.86 15.35,-16.11 26.29,-16.81 -30.13,10.66 -22.79,66.91 -7.45,87.39 -1.61,-24.89 19.65,-33.14 25.34,-53.49 -5.87,-9.37 -9.3,-20.2 -9.79,-31.46 7.38,26.04 31.01,41.91 58.34,47.33 -11.5,-7.45 -21.53,-17.2 -29.36,-28.87 34.71,33.73 99.28,38 128.47,-4.61 -1.68,6.22 -4.26,12.16 -7.65,17.62 6.22,22.2 27.02,27.51 25.34,53.49 26.32,-35.2 6.99,-83.86 -7.59,-91.03 4.79,-13.74 6.08,-28.74 3.32,-43.52 -1.4,6.92 -4.96,13.21 -10.17,17.97 5.59,-15.38 3.56,-32.48 -5.45,-46.14 -17.3,33.14 -55.86,47.51 -90.09,38.28 18.35,0.98 36.36,-3.74 51.67,-13.22 -44.8,7.13 -104.37,-21.61 -119.93,42.64 z"
   id="path4" />
		<path
   class="st2"
   d="m 313.27,228.62 c -10.26,2.77 -26.43,2.77 -36.69,0 -9.84,-2.67 -19.25,-6.17 -29.03,-8.92 -9.17,-2.58 -19.43,-4.57 -28.84,-1.6 -8.14,2.57 -13.91,8.12 -16.92,14.77 -3.96,8.81 -3.01,18.89 -0.45,27.87 4.91,17.18 17.78,41.91 41.59,45.24 10.78,1.5 21.52,-1.64 31.65,-4.29 17.63,-4.63 23.05,-4.63 40.67,0 10.13,2.65 20.88,5.79 31.66,4.29 23.79,-3.33 36.66,-28.06 41.58,-45.24 2.57,-8.98 3.52,-19.07 -0.45,-27.87 -3.01,-6.66 -8.78,-12.21 -16.92,-14.77 -9.41,-2.97 -19.67,-0.98 -28.84,1.6 -9.76,2.76 -19.17,6.26 -29.01,8.92 z m 22.81,56.57 c -11.5,0 -20.81,-9.32 -20.81,-20.81 0,-11.5 9.31,-20.81 20.81,-20.81 11.49,0 20.81,9.31 20.81,20.81 0,11.49 -9.32,20.81 -20.81,20.81 z m 0,-6.76 v 0 c -2.06,0 -3.75,-1.69 -3.75,-3.75 v -6.56 h -6.57 c -2.05,0 -3.73,-1.69 -3.73,-3.75 v 0 c 0,-2.06 1.69,-3.75 3.73,-3.75 h 6.57 v -6.56 c 0,-2.06 1.69,-3.75 3.75,-3.75 v 0 c 2.06,0 3.75,1.69 3.75,3.75 v 6.56 h 6.56 c 2.06,0 3.75,1.69 3.75,3.75 v 0 c 0,2.06 -1.69,3.75 -3.75,3.75 h -6.56 v 6.56 c 0,2.07 -1.69,3.75 -3.75,3.75 z m -75.61,-27.48 c 0,3.69 -3,6.69 -6.69,6.69 -3.7,0 -6.69,-3 -6.69,-6.69 0,-3.7 2.98,-6.69 6.69,-6.69 3.7,0 6.69,2.99 6.69,6.69 z m -20.84,20.82 c -3.69,0 -6.69,-2.98 -6.69,-6.69 0,-3.69 3,-6.69 6.69,-6.69 3.7,0 6.7,3 6.7,6.69 0.01,3.71 -2.99,6.69 -6.7,6.69 z m 20.84,7.46 c 0,3.7 -3,6.7 -6.69,6.7 -3.7,0 -6.69,-3 -6.69,-6.7 0,-3.69 2.98,-6.69 6.69,-6.69 3.7,0 6.69,3 6.69,6.69 z m 7.46,-7.46 c -3.69,0 -6.69,-2.98 -6.69,-6.69 0,-3.69 3,-6.69 6.69,-6.69 3.7,0 6.69,3 6.69,6.69 -0.01,3.71 -2.99,6.69 -6.69,6.69 z"
   id="path6" />
	</g>
</g>
</svg>
