<?xml version="1.0" encoding="UTF-8" standalone="no"?>
<svg
   xmlns:dc="http://purl.org/dc/elements/1.1/"
   xmlns:cc="http://creativecommons.org/ns#"
   xmlns:rdf="http://www.w3.org/1999/02/22-rdf-syntax-ns#"
   xmlns:svg="http://www.w3.org/2000/svg"
   xmlns="http://www.w3.org/2000/svg"
   xmlns:sodipodi="http://sodipodi.sourceforge.net/DTD/sodipodi-0.dtd"
   xmlns:inkscape="http://www.inkscape.org/namespaces/inkscape"
   version="1.1"
   id="Layer_1"
   x="0px"
   y="0px"
   viewBox="0 0 366.14999 62.52"
   xml:space="preserve"
   sodipodi:docname="title.svg"
   width="366.14999"
   height="62.52"
   inkscape:version="1.0.2 (e86c870879, 2021-01-15, custom)"><metadata
   id="metadata35"><rdf:RDF><cc:Work
       rdf:about=""><dc:format>image/svg+xml</dc:format><dc:type
         rdf:resource="http://purl.org/dc/dcmitype/StillImage" /><dc:title></dc:title></cc:Work></rdf:RDF></metadata><defs
   id="defs33" /><sodipodi:namedview
   pagecolor="#ffffff"
   bordercolor="#666666"
   borderopacity="1"
   objecttolerance="10"
   gridtolerance="10"
   guidetolerance="10"
   inkscape:pageopacity="0"
   inkscape:pageshadow="2"
   inkscape:window-width="2506"
   inkscape:window-height="1376"
   id="namedview31"
   showgrid="false"
   fit-margin-top="0"
   fit-margin-left="0"
   fit-margin-right="0"
   fit-margin-bottom="0"
   inkscape:zoom="1.7366667"
   inkscape:cx="300"
   inkscape:cy="225"
   inkscape:window-x="1263"
   inkscape:window-y="16"
   inkscape:window-maximized="0"
   inkscape:current-layer="Layer_1" />
<style
   type="text/css"
   id="style2">
	.st0{fill:#20B573;}
	.st1{fill:#FFFFFF;}
	.st2{fill-rule:evenodd;clip-rule:evenodd;fill:#6989AF;}
	.st3{fill:#6989AF;}
	.st4{fill:#CB8185;}
</style>
<g
   id="g28"
   transform="translate(-112.65,-328.64)">
	<g
   id="g14">
		<path
   class="st3"
   d="m 142.5,378.55 c -1.41,0.47 -5.3,1.14 -9.99,1.14 -10.2,0 -19.86,-5.37 -19.86,-21.33 v -8.45 c 0,-15.96 9.66,-21.26 19.86,-21.26 4.7,0 8.59,0.67 9.99,1.14 0.94,0.27 1.48,0.54 1.48,1.48 v 6.51 c 0,0.8 -0.4,1.34 -1.28,1.34 -0.07,0 -0.13,0 -0.2,0 -2.55,-0.2 -6.24,-0.54 -9.93,-0.54 -4.63,0 -8.32,2.42 -8.32,11.34 v 8.45 c 0,8.92 3.69,11.34 8.32,11.34 3.69,0 7.38,-0.33 9.93,-0.54 0.07,0 0.13,0 0.2,0 0.87,0 1.28,0.54 1.28,1.34 V 377 c 0,0.94 -0.54,1.28 -1.48,1.55 z"
   id="path4" />
		<path
   class="st3"
   d="m 166.05,379.69 c -11.07,0 -19.86,-5.97 -19.86,-21.53 v -7.98 c 0,-15.56 8.79,-21.53 19.86,-21.53 11.07,0 19.85,5.97 19.85,21.53 v 7.98 c 0,15.56 -8.79,21.53 -19.85,21.53 z m 8.31,-29.52 c 0,-8.05 -2.68,-11.47 -8.32,-11.47 -5.64,0 -8.25,3.42 -8.25,11.47 v 7.98 c 0,8.05 2.62,11.47 8.25,11.47 5.63,0 8.32,-3.42 8.32,-11.47 z"
   id="path6" />
		<path
   class="st3"
   d="m 207.7,379.69 c -5.57,0 -11.54,-0.54 -14.29,-1.01 -1.27,-0.2 -1.95,-0.81 -1.95,-2.35 V 332 c 0,-1.54 0.67,-2.15 1.95,-2.35 2.75,-0.47 8.72,-1.01 14.29,-1.01 13.35,0 21.4,7.04 21.4,21.2 v 8.65 c 0,14.15 -8.05,21.2 -21.4,21.2 z m 9.93,-29.85 c 0,-9.06 -3.89,-11.47 -9.93,-11.47 -1.68,0 -3.82,0.07 -4.76,0.13 v 31.33 c 0.94,0.07 3.08,0.13 4.76,0.13 6.04,0 9.93,-2.42 9.93,-11.47 z"
   id="path8" />
		<path
   class="st3"
   d="m 263.64,378.82 c -2.35,0.33 -5.77,0.87 -13.01,0.87 -8.65,0 -16.3,-2.21 -16.3,-14.42 V 343 c 0,-12.21 7.71,-14.35 16.37,-14.35 7.24,0 10.6,0.54 12.95,0.87 0.94,0.13 1.34,0.47 1.34,1.34 v 6.24 c 0,0.74 -0.6,1.34 -1.34,1.34 h -13.62 c -3.15,0 -4.29,1.07 -4.29,4.56 v 6.1 h 17.37 c 0.74,0 1.34,0.6 1.34,1.34 v 6.37 c 0,0.74 -0.6,1.34 -1.34,1.34 h -17.37 v 7.11 c 0,3.49 1.14,4.56 4.29,4.56 h 13.62 c 0.74,0 1.34,0.6 1.34,1.34 v 6.24 c -0.01,0.88 -0.41,1.28 -1.35,1.42 z"
   id="path10" />
		<path
   class="st3"
   d="m 308.25,379.08 h -10.26 c -0.74,0 -1.01,-0.67 -1.34,-1.34 l -8.99,-16.97 -0.74,0.07 c -1.41,0 -3.49,-0.13 -4.76,-0.13 v 17.04 c 0,0.74 -0.6,1.34 -1.34,1.34 h -8.72 c -0.74,0 -1.34,-0.6 -1.34,-1.34 v -45.01 c 0,-2.28 0.94,-2.88 3.02,-3.22 3.09,-0.47 8.79,-0.87 13.62,-0.87 11.4,0 20.19,3.82 20.19,15.7 v 0.87 c 0,7.11 -3.76,11.47 -8.65,13.42 l 10.13,18.92 c 0.13,0.27 0.2,0.54 0.2,0.74 -0.02,0.45 -0.29,0.78 -1.02,0.78 z m -12.08,-34.74 c 0,-4.09 -3.15,-5.97 -8.79,-5.97 -0.94,0 -4.43,0.13 -5.23,0.2 v 12.88 c 0.74,0.07 4.02,0.13 4.76,0.13 7.04,0 9.26,-1.81 9.26,-6.37 z"
   id="path12" />
	</g>
	<g
   id="g26">
		<path
   class="st4"
   d="m 350.35,379.08 h -4.16 c -1.07,0 -1.81,-0.4 -2.15,-1.07 l -20.73,-39.37 c -0.07,-0.13 -0.13,-0.2 -0.2,-0.2 -0.07,0 -0.07,0.07 -0.07,0.2 v 39.17 c 0,0.67 -0.54,1.27 -1.21,1.27 h -3.49 c -0.67,0 -1.21,-0.13 -1.21,-0.81 v -47.16 c 0,-1.07 0.87,-1.88 1.95,-1.88 h 3.69 c 1.88,0 2.21,0.34 2.75,1.34 l 20.59,39.17 0.13,0.2 c 0.07,0 0.07,-0.13 0.07,-0.2 V 330.5 c 0,-0.67 0.54,-1.27 1.21,-1.27 h 3.55 c 0.74,0 1.21,0.6 1.21,1.27 v 46.62 c 0.01,1.09 -0.86,1.96 -1.93,1.96 z"
   id="path16" />
		<path
   class="st4"
   d="m 368.32,379.08 h -3.69 c -0.67,0 -1.21,-0.6 -1.21,-1.34 v -47.22 c 0,-0.67 0.47,-1.27 1.21,-1.27 h 3.69 c 0.67,0 1.21,0.54 1.21,1.27 v 47.22 c 0,0.67 -0.47,1.34 -1.21,1.34 z"
   id="path18" />
		<path
   class="st4"
   d="m 413.87,379.08 h -4.16 c -1.07,0 -1.81,-0.4 -2.15,-1.07 l -20.73,-39.37 c -0.07,-0.13 -0.13,-0.2 -0.2,-0.2 -0.07,0 -0.07,0.07 -0.07,0.2 v 39.17 c 0,0.67 -0.54,1.27 -1.21,1.27 h -3.49 c -0.67,0 -1.21,-0.13 -1.21,-0.81 v -47.16 c 0,-1.07 0.87,-1.88 1.95,-1.88 h 3.69 c 1.88,0 2.21,0.34 2.75,1.34 l 20.59,39.17 0.13,0.2 c 0.07,0 0.07,-0.13 0.07,-0.2 V 330.5 c 0,-0.67 0.54,-1.27 1.21,-1.27 h 3.55 c 0.74,0 1.21,0.6 1.21,1.27 v 46.62 c 0.01,1.09 -0.86,1.96 -1.93,1.96 z"
   id="path20" />
		<path
   class="st4"
   d="m 422.65,391.16 c -1.48,0 -3.15,-0.33 -3.56,-0.54 -0.27,-0.13 -0.4,-0.4 -0.4,-0.74 v -2.48 c 0,-0.74 0.6,-1.14 1.34,-1.14 h 2.62 c 3.55,0 4.29,-1.41 4.29,-4.7 v -51.05 c 0,-0.67 0.6,-1.27 1.27,-1.27 h 3.55 c 0.67,0 1.27,0.6 1.27,1.27 v 51.05 c 0.02,6.44 -3,9.6 -10.38,9.6 z"
   id="path22" />
		<path
   class="st4"
   d="m 477.66,379.08 h -3.96 c -0.6,0 -1.01,-0.47 -1.14,-1.01 l -4.36,-15.43 h -17.37 l -4.29,15.43 c -0.13,0.54 -0.67,1.01 -1.21,1.01 h -3.96 c -0.67,0 -1.14,-0.47 -1.14,-1.07 0,-0.13 0,-0.34 0.07,-0.47 l 12.41,-43.67 c 1.14,-4.09 4.29,-5.1 6.84,-5.1 2.48,0 5.63,0.94 6.77,5.03 l 12.41,43.73 c 0.07,0.13 0.07,0.34 0.07,0.47 0,0.61 -0.41,1.08 -1.14,1.08 z m -16.84,-43.8 c -0.2,-0.74 -0.6,-1.21 -1.27,-1.21 -0.74,0 -1.14,0.47 -1.34,1.21 l -6.1,22.07 h 14.82 z"
   id="path24" />
	</g>
</g>
</svg>
